<?xml version="1.0" encoding="UTF-8"?>
<!DOCTYPE svg PUBLIC "-//W3C//DTD SVG 1.1//EN" "http://www.w3.org/Graphics/SVG/1.1/DTD/svg11.dtd">
<!-- Creator: CorelDRAW X7 -->
<svg xmlns="http://www.w3.org/2000/svg" xml:space="preserve" width="100px" height="100px" version="1.1" style="shape-rendering:geometricPrecision; text-rendering:geometricPrecision; image-rendering:optimizeQuality; fill-rule:evenodd; clip-rule:evenodd"
viewBox="0 0 11693 8268"
 xmlns:xlink="http://www.w3.org/1999/xlink">
 <defs>
  <style type="text/css">

   <![CDATA[
    .str0 {stroke:black;stroke-width:6.94488}
    .fil0 {fill:#444}
   ]]>
  </style>
 </defs>
 <g id="Layer_x0020_1">
  <metadata id="CorelCorpID_0Corel-Layer"/>
  <path class="fil0 str0" d="M6510 1435l0 3111 -1015 0 0 -3111 1015 0zm-1370 582l0 1254c-232,204 -377,494 -377,815 0,616 531,1115 1185,1115 654,0 1185,-499 1185,-1115 0,-274 -106,-526 -281,-720l0 -1310c599,238 1072,705 1291,1289l481 -150c294,347 290,883 94,1270l-464 -83c-32,222 -100,435 -198,632l389 249c-75,448 -488,790 -911,890l-182 -317c-204,148 -455,292 -705,370l271 657c-365,272 -1127,251 -1501,31l204 -611c-367,-31 -615,-142 -914,-315l-398 437c-430,-151 -696,-616 -722,-1050l341 -125c-156,-244 -264,-520 -310,-816l-499 -19c-161,-426 23,-929 338,-1229l283 163c238,-605 751,-1089 1400,-1312z"/>
 </g>
</svg>
